<?xml version="1.0" standalone="no"?><!DOCTYPE svg PUBLIC "-//W3C//DTD SVG 1.1//EN" "http://www.w3.org/Graphics/SVG/1.1/DTD/svg11.dtd"><svg t="1597572637632" class="icon" viewBox="0 0 1024 1024" version="1.1" xmlns="http://www.w3.org/2000/svg" p-id="1316" xmlns:xlink="http://www.w3.org/1999/xlink" width="200" height="200"><defs><style type="text/css"></style></defs><path d="M419.612 837.177c98.532 0 191.716-33.906 266.468-96.142l269.084 269.084c7.51 7.51 17.408 11.264 27.307 11.264s19.797-3.755 27.307-11.264c15.132-15.132 15.132-39.595 0-54.613l-268.97-269.198c136.077-163.84 127.43-408.121-26.056-561.608C635.904 45.966 531.115 2.503 419.612 2.503c-111.502 0-216.291 43.463-295.14 122.197-162.701 162.703-162.701 427.464 0 590.166 78.963 78.962 183.752 122.31 295.14 122.31zM179.2 179.427c64.284-64.17 149.618-99.555 240.412-99.555 90.795 0 176.242 35.385 240.413 99.556 132.551 132.55 132.551 348.387 0 480.938-64.285 64.17-149.618 99.556-240.413 99.556S243.484 724.537 179.2 660.366c-132.551-132.665-132.551-348.387 0-480.938z" p-id="1317" fill="#707070"></path></svg>